<svg width="32" height="32" viewBox="0 0 32 32" fill="none" xmlns="http://www.w3.org/2000/svg">
<path d="M23 2H9C8.20435 2 7.44129 2.31607 6.87868 2.87868C6.31607 3.44129 6 4.20435 6 5V27C6 27.7956 6.31607 28.5587 6.87868 29.1213C7.44129 29.6839 8.20435 30 9 30H23C23.7956 30 24.5587 29.6839 25.1213 29.1213C25.6839 28.5587 26 27.7956 26 27V5C26 4.20435 25.6839 3.44129 25.1213 2.87868C24.5587 2.31607 23.7956 2 23 2ZM24 27C24 27.2652 23.8946 27.5196 23.7071 27.7071C23.5196 27.8946 23.2652 28 23 28H9C8.73478 28 8.48043 27.8946 8.29289 27.7071C8.10536 27.5196 8 27.2652 8 27V5C8 4.73478 8.10536 4.48043 8.29289 4.29289C8.48043 4.10536 8.73478 4 9 4H23C23.2652 4 23.5196 4.10536 23.7071 4.29289C23.8946 4.48043 24 4.73478 24 5V27Z" fill="#000"/>
<path d="M18.73 11.66C19.224 11.0481 19.4955 10.2865 19.5 9.5C19.5 8.57174 19.1313 7.6815 18.4749 7.02513C17.8185 6.36875 16.9283 6 16 6C15.0717 6 14.1815 6.36875 13.5251 7.02513C12.8687 7.6815 12.5 8.57174 12.5 9.5C12.5045 10.2865 12.776 11.0481 13.27 11.66C12.2861 12.1627 11.4601 12.9274 10.8832 13.8696C10.3062 14.8118 10.0005 15.8951 10 17C10 17.2652 10.1054 17.5196 10.2929 17.7071C10.4804 17.8946 10.7348 18 11 18H21C21.2652 18 21.5196 17.8946 21.7071 17.7071C21.8946 17.5196 22 17.2652 22 17C21.9995 15.8951 21.6938 14.8118 21.1168 13.8696C20.5399 12.9274 19.7139 12.1627 18.73 11.66ZM14.5 9.5C14.5 9.20333 14.588 8.91332 14.7528 8.66665C14.9176 8.41997 15.1519 8.22771 15.426 8.11418C15.7001 8.00065 16.0017 7.97094 16.2926 8.02882C16.5836 8.0867 16.8509 8.22956 17.0607 8.43934C17.2704 8.64912 17.4133 8.91639 17.4712 9.20736C17.5291 9.49834 17.4994 9.79994 17.3858 10.074C17.2723 10.3481 17.08 10.5824 16.8334 10.7472C16.5867 10.912 16.2967 11 16 11C15.6022 11 15.2206 10.842 14.9393 10.5607C14.658 10.2794 14.5 9.89782 14.5 9.5ZM16 13C16.8846 13.0029 17.7432 13.2989 18.4416 13.8417C19.1401 14.3845 19.6389 15.1435 19.86 16H12.14C12.3611 15.1435 12.8599 14.3845 13.5584 13.8417C14.2568 13.2989 15.1154 13.0029 16 13Z" fill="#000"/>
<path d="M11 22H13C13.2652 22 13.5196 21.8946 13.7071 21.7071C13.8946 21.5196 14 21.2652 14 21C14 20.7348 13.8946 20.4804 13.7071 20.2929C13.5196 20.1054 13.2652 20 13 20H11C10.7348 20 10.4804 20.1054 10.2929 20.2929C10.1054 20.4804 10 20.7348 10 21C10 21.2652 10.1054 21.5196 10.2929 21.7071C10.4804 21.8946 10.7348 22 11 22Z" fill="#000"/>
<path d="M21 20H17C16.7348 20 16.4804 20.1054 16.2929 20.2929C16.1054 20.4804 16 20.7348 16 21C16 21.2652 16.1054 21.5196 16.2929 21.7071C16.4804 21.8946 16.7348 22 17 22H21C21.2652 22 21.5196 21.8946 21.7071 21.7071C21.8946 21.5196 22 21.2652 22 21C22 20.7348 21.8946 20.4804 21.7071 20.2929C21.5196 20.1054 21.2652 20 21 20Z" fill="#000"/>
<path d="M21 24H11C10.7348 24 10.4804 24.1054 10.2929 24.2929C10.1054 24.4804 10 24.7348 10 25C10 25.2652 10.1054 25.5196 10.2929 25.7071C10.4804 25.8946 10.7348 26 11 26H21C21.2652 26 21.5196 25.8946 21.7071 25.7071C21.8946 25.5196 22 25.2652 22 25C22 24.7348 21.8946 24.4804 21.7071 24.2929C21.5196 24.1054 21.2652 24 21 24Z" fill="#000"/>
</svg>
